<?xml version="1.0" encoding="UTF-8" standalone="no"?>
<!DOCTYPE svg PUBLIC "-//W3C//DTD SVG 20010904//EN"
              "http://www.w3.org/TR/2001/REC-SVG-20010904/DTD/svg10.dtd">

<svg xmlns="http://www.w3.org/2000/svg"
     width="3in" height="3in"
     viewBox="0 0 900 900">
  <path id="Selection"
        fill="none" stroke="black" stroke-width="1"
        d="M 434.00,176.00
           C 429.08,148.51 453.30,127.48 480.00,133.29
             484.98,134.37 489.89,136.77 494.00,139.76
             496.70,141.73 499.69,145.03 503.00,145.52
             505.01,145.81 511.68,144.28 514.00,143.79
             514.00,143.79 536.00,139.20 536.00,139.20
             536.00,139.20 556.00,134.42 556.00,134.42
             556.00,134.42 599.00,125.01 599.00,125.01
             599.00,125.01 628.89,118.49 628.89,118.49
             633.99,115.99 632.93,110.32 639.52,102.00
             649.38,89.56 667.21,85.09 682.00,90.44
             693.93,94.76 702.99,104.50 705.71,117.00
             708.25,128.66 705.64,130.82 706.69,133.87
             707.19,135.34 707.95,135.94 709.15,136.83
             709.15,136.83 718.00,142.49 718.00,142.49
             718.00,142.49 752.00,164.18 752.00,164.18
             755.61,166.52 770.21,176.76 773.00,177.51
             777.17,178.62 781.07,174.80 788.00,173.29
             800.98,170.46 814.66,174.12 823.82,184.04
             842.88,204.68 832.07,238.84 811.00,244.00
             811.00,244.00 810.00,264.00 810.00,264.00
             810.00,264.00 810.00,328.00 810.00,328.00
             810.02,340.28 813.20,336.47 820.24,346.00
             825.34,352.90 828.73,363.40 827.71,372.00
             826.25,384.40 820.93,394.62 810.00,401.24
             810.00,401.24 796.63,407.56 796.63,407.56
             794.39,409.69 790.79,418.70 789.30,422.00
             789.30,422.00 784.54,435.00 784.54,435.00
             784.54,435.00 775.45,456.00 775.45,456.00
             775.45,456.00 770.69,469.00 770.69,469.00
             770.69,469.00 760.54,494.00 760.54,494.00
             760.54,494.00 756.31,504.58 756.31,504.58
             756.06,507.15 759.16,511.41 760.33,514.00
             762.41,518.59 764.18,525.97 763.82,531.00
             762.65,547.06 752.73,560.68 737.00,565.22
             737.00,565.22 718.09,567.69 718.09,567.69
             715.68,569.15 711.96,574.56 710.13,577.00
             710.13,577.00 697.08,593.00 697.08,593.00
             697.08,593.00 674.92,621.00 674.92,621.00
             671.45,625.20 662.07,635.79 659.94,640.00
             656.85,646.12 661.63,647.84 658.91,662.00
             655.59,679.19 638.81,693.11 621.00,691.82
             615.95,691.45 610.55,690.08 606.00,687.87
             603.53,686.67 600.38,684.07 597.72,684.28
             595.82,684.43 591.05,686.75 589.00,687.54
             589.00,687.54 572.00,694.15 572.00,694.15
             572.00,694.15 552.00,702.01 552.00,702.01
             552.00,702.01 536.00,708.94 536.00,708.94
             536.00,708.94 527.00,711.92 527.00,711.92
             527.00,711.92 512.00,718.55 512.00,718.55
             512.00,718.55 499.00,723.23 499.00,723.23
             496.33,724.43 490.39,726.65 488.59,728.64
             486.43,731.03 486.97,735.66 482.83,743.00
             476.31,754.55 464.98,760.72 452.00,761.83
             438.71,762.96 424.58,755.27 417.76,744.00
             413.43,736.85 413.33,731.33 411.99,729.42
             410.96,727.94 409.60,727.38 407.98,726.76
             407.98,726.76 382.00,718.26 382.00,718.26
             382.00,718.26 334.00,702.56 334.00,702.56
             334.00,702.56 312.00,695.26 312.00,695.26
             309.50,694.45 304.40,692.38 302.00,692.33
             298.02,692.25 293.68,696.75 290.00,698.83
             284.67,701.84 276.14,704.26 270.00,703.82
             267.02,703.60 261.83,701.99 259.17,703.19
             256.54,704.38 254.12,708.63 252.49,711.00
             252.49,711.00 242.20,725.00 242.20,725.00
             242.20,725.00 216.91,760.00 216.91,760.00
             216.91,760.00 201.83,781.00 201.83,781.00
             201.83,781.00 185.37,803.00 185.37,803.00
             183.37,805.67 178.26,812.06 177.49,815.00
             176.48,818.80 179.48,822.32 180.71,828.00
             182.70,837.14 182.00,845.51 177.87,854.00
             166.69,876.99 135.03,881.85 117.09,863.91
             102.62,849.43 102.62,824.57 117.09,810.09
             123.71,803.47 131.86,800.37 141.00,799.29
             148.27,798.43 150.83,801.19 154.54,798.40
             156.75,796.73 160.13,791.42 161.87,789.00
             161.87,789.00 173.91,773.00 173.91,773.00
             173.91,773.00 213.64,718.00 213.64,718.00
             213.64,718.00 228.87,697.00 228.87,697.00
             230.93,694.25 236.01,687.97 236.89,685.00
             237.91,681.60 233.61,670.65 234.17,664.00
             234.68,658.07 236.24,652.20 239.17,647.00
             240.79,644.13 244.88,639.80 244.79,636.83
             244.79,636.83 241.86,627.00 241.86,627.00
             241.86,627.00 234.42,603.00 234.42,603.00
             234.42,603.00 216.49,546.00 216.49,546.00
             216.49,546.00 206.00,512.00 206.00,512.00
             186.95,511.57 173.51,495.26 172.18,477.00
             171.15,462.79 180.42,448.25 193.00,442.13
             203.88,436.84 208.68,440.47 212.47,433.94
             212.47,433.94 221.28,412.00 221.28,412.00
             221.28,412.00 242.14,365.00 242.14,365.00
             242.14,365.00 247.77,350.00 247.77,350.00
             247.77,350.00 260.23,322.00 260.23,322.00
             261.25,319.76 265.75,310.17 265.83,308.42
             265.93,305.95 263.26,302.34 262.13,300.00
             259.91,295.42 258.55,290.09 258.18,285.00
             256.67,264.22 276.22,244.67 297.00,246.18
             297.00,246.18 314.00,249.66 314.00,249.66
             317.39,249.24 323.06,245.12 326.00,243.17
             326.00,243.17 348.00,229.18 348.00,229.18
             348.00,229.18 400.00,196.51 400.00,196.51
             406.66,192.09 427.68,178.09 434.00,176.00 Z
           M 636.00,144.00
           C 636.00,144.00 556.00,161.60 556.00,161.60
             556.00,161.60 528.00,167.99 528.00,167.99
             528.00,167.99 511.15,171.85 511.15,171.85
             507.66,173.60 506.50,181.92 504.37,186.00
             499.95,194.43 492.83,200.70 484.00,204.17
             476.12,207.27 468.05,207.54 460.00,204.91
             451.37,202.09 449.98,198.18 444.00,200.30
             440.26,201.62 429.90,208.91 426.00,211.51
             426.00,211.51 399.00,228.51 399.00,228.51
             399.00,228.51 380.00,240.21 380.00,240.21
             380.00,240.21 360.00,253.47 360.00,253.47
             360.00,253.47 331.11,272.00 331.11,272.00
             332.53,280.43 333.71,284.39 331.11,293.00
             326.16,310.52 308.23,323.21 290.00,320.00
             290.00,320.00 268.86,368.00 268.86,368.00
             268.86,368.00 264.54,380.00 264.54,380.00
             264.54,380.00 252.14,408.00 252.14,408.00
             252.14,408.00 239.58,438.00 239.58,438.00
             238.87,440.19 236.65,445.14 236.70,447.00
             236.78,450.12 240.55,454.21 242.24,457.00
             245.33,462.13 247.20,468.03 247.68,474.00
             248.27,481.52 244.64,491.01 240.24,497.00
             237.83,500.27 232.44,504.32 232.43,508.09
             232.43,510.61 234.72,516.32 235.58,519.00
             235.58,519.00 243.93,545.00 243.93,545.00
             243.93,545.00 260.02,596.00 260.02,596.00
             260.02,596.00 270.00,628.00 270.00,628.00
             273.76,628.31 278.41,628.95 282.00,630.09
             284.25,630.81 287.46,632.54 289.79,631.65
             292.60,630.58 295.47,624.59 296.99,622.00
             296.99,622.00 310.51,602.00 310.51,602.00
             312.00,599.75 315.12,595.60 315.35,593.00
             315.75,588.58 310.39,584.68 308.29,575.00
             305.19,560.75 310.50,546.56 322.00,537.52
             325.63,534.66 329.00,533.14 333.00,531.00
             331.18,520.84 332.12,509.41 332.00,499.00
             332.00,499.00 331.00,484.00 331.00,484.00
             331.00,484.00 329.00,390.00 329.00,390.00
             329.00,386.85 329.13,382.12 327.60,379.32
             325.94,376.31 322.12,374.86 317.52,369.00
             312.67,362.84 308.69,352.94 309.32,345.00
             310.83,326.11 328.21,307.75 348.00,309.32
             371.63,311.20 389.90,334.94 381.56,358.00
             376.59,371.74 367.29,378.39 354.00,383.00
             354.00,383.00 355.00,408.00 355.00,408.00
             355.00,408.00 356.00,429.00 356.00,429.00
             356.00,429.00 357.00,487.00 357.00,487.00
             357.00,487.00 358.00,504.00 358.00,504.00
             358.00,504.00 358.59,529.89 358.59,529.89
             358.59,529.89 361.00,533.00 361.00,533.00
             361.00,533.00 421.67,459.00 421.67,459.00
             421.67,459.00 429.54,450.00 429.54,450.00
             429.54,450.00 437.26,440.00 437.26,440.00
             438.84,438.06 443.38,432.91 444.23,431.00
             445.59,427.95 442.69,419.96 442.30,416.00
             441.76,410.56 443.75,402.89 446.13,398.00
             449.08,391.94 453.46,386.88 459.00,383.05
             461.68,381.20 467.14,379.07 468.52,376.61
             468.52,376.61 472.42,352.00 472.42,352.00
             472.42,352.00 478.28,309.00 478.28,309.00
             478.28,309.00 480.78,291.04 480.78,291.04
             480.86,285.64 476.99,285.72 471.32,279.00
             465.98,272.65 462.65,264.31 462.21,256.00
             461.15,236.17 480.97,215.73 501.00,217.32
             529.86,219.62 546.75,251.67 529.95,276.00
             526.53,280.94 522.23,284.88 517.00,287.83
             513.71,289.68 508.53,290.75 507.01,294.22
             507.01,294.22 502.87,322.00 502.87,322.00
             502.87,322.00 496.00,376.00 496.00,376.00
             501.92,372.54 506.75,367.47 512.00,363.08
             512.00,363.08 545.00,334.43 545.00,334.43
             545.00,334.43 576.00,307.83 576.00,307.83
             576.00,307.83 592.00,293.30 592.00,293.30
             592.00,293.30 634.85,256.58 634.85,256.58
             640.73,250.54 635.61,248.88 638.09,236.00
             640.64,222.80 650.45,211.98 663.00,207.44
             686.72,198.86 711.48,217.37 712.79,242.00
             713.32,251.83 707.91,263.19 700.96,269.91
             693.84,276.78 682.01,281.89 672.00,280.57
             658.16,278.74 657.13,273.42 651.00,277.05
             647.55,279.08 639.39,286.75 636.00,289.72
             636.00,289.72 619.00,304.17 619.00,304.17
             619.00,304.17 603.00,318.70 603.00,318.70
             603.00,318.70 552.00,362.57 552.00,362.57
             541.57,371.49 530.43,380.03 521.00,390.00
             521.00,390.00 535.00,390.00 535.00,390.00
             535.00,390.00 550.00,389.00 550.00,389.00
             550.00,389.00 592.00,389.00 592.00,389.00
             592.00,389.00 607.00,388.00 607.00,388.00
             609.83,387.97 617.23,388.52 619.36,387.01
             619.36,387.01 627.32,375.00 627.32,375.00
             634.05,367.02 646.31,360.47 657.00,361.32
             680.23,363.17 697.21,385.15 691.49,408.00
             685.27,432.82 656.45,444.76 635.00,429.95
             629.16,425.91 624.54,420.65 622.00,414.00
             622.00,414.00 602.00,414.00 602.00,414.00
             602.00,414.00 586.00,415.00 586.00,415.00
             586.00,415.00 542.00,415.00 542.00,415.00
             542.00,415.00 526.00,416.00 526.00,416.00
             524.04,416.01 520.30,415.74 518.74,416.99
             517.40,418.06 515.52,426.38 514.33,429.00
             510.90,436.58 505.25,442.74 498.00,446.83
             492.64,449.85 484.16,452.31 478.00,451.70
             474.50,451.35 465.76,448.40 463.30,449.81
             461.32,450.93 457.27,456.89 455.54,459.00
             455.54,459.00 448.46,467.00 448.46,467.00
             448.46,467.00 440.70,477.00 440.70,477.00
             440.70,477.00 417.46,505.00 417.46,505.00
             417.46,505.00 409.70,515.00 409.70,515.00
             401.12,525.07 386.73,541.36 380.00,552.00
             380.00,552.00 420.00,548.91 420.00,548.91
             420.00,548.91 479.00,544.91 479.00,544.91
             479.00,544.91 498.00,543.09 498.00,543.09
             498.00,543.09 527.00,541.02 527.00,541.02
             527.00,541.02 533.90,541.02 533.90,541.02
             539.32,539.97 537.77,535.23 545.18,527.01
             551.98,519.47 561.84,514.75 572.00,514.21
             592.21,513.13 608.80,530.81 610.70,550.00
             611.09,553.96 609.92,560.25 608.56,564.00
             600.09,587.40 572.75,597.28 552.00,582.95
             546.16,578.91 541.54,573.65 539.00,567.00
             539.00,567.00 508.00,568.91 508.00,568.91
             508.00,568.91 485.00,570.09 485.00,570.09
             485.00,570.09 466.00,571.91 466.00,571.91
             466.00,571.91 444.00,573.09 444.00,573.09
             444.00,573.09 436.00,573.96 436.00,573.96
             436.00,573.96 415.00,575.09 415.00,575.09
             415.00,575.09 406.00,575.99 406.00,575.99
             402.37,576.08 385.67,576.95 383.21,578.01
             379.84,579.46 377.71,585.64 375.24,589.00
             371.26,594.40 366.10,598.57 360.00,601.33
             350.85,605.48 343.29,604.26 340.30,606.02
             337.49,607.68 332.55,615.93 330.51,619.00
             330.51,619.00 311.87,647.00 311.87,647.00
             308.57,652.79 306.08,657.07 309.03,663.86
             310.80,667.93 321.76,670.35 326.00,671.74
             326.00,671.74 374.00,687.44 374.00,687.44
             374.00,687.44 383.00,690.80 383.00,690.80
             383.00,690.80 405.00,697.74 405.00,697.74
             408.22,698.81 414.83,701.72 418.00,701.39
             421.61,701.01 425.79,696.27 429.00,694.05
             434.76,690.08 441.99,687.58 449.00,687.21
             455.67,686.85 464.44,689.79 470.00,693.39
             473.35,695.55 478.43,701.15 482.00,701.05
             483.48,701.02 488.23,698.97 490.00,698.34
             490.00,698.34 513.00,689.06 513.00,689.06
             513.00,689.06 522.00,686.08 522.00,686.08
             522.00,686.08 537.00,679.43 537.00,679.43
             537.00,679.43 549.00,675.09 549.00,675.09
             549.00,675.09 564.00,668.60 564.00,668.60
             564.00,668.60 586.00,660.00 586.00,660.00
             582.12,638.26 601.22,614.51 624.00,616.32
             634.22,617.14 637.07,621.39 642.00,618.39
             646.42,615.69 654.37,603.70 658.28,599.00
             658.28,599.00 678.28,574.00 678.28,574.00
             683.67,567.53 691.96,558.03 696.00,551.00
             675.19,523.24 701.17,487.50 732.00,493.00
             732.00,493.00 770.00,400.00 770.00,400.00
             764.25,395.65 760.32,391.56 757.13,385.00
             746.15,362.43 760.18,337.58 784.00,332.00
             784.00,332.00 784.00,281.00 784.00,281.00
             784.00,281.00 785.00,266.00 785.00,266.00
             785.04,262.29 785.63,248.94 783.98,246.41
             782.77,244.57 778.10,242.40 776.00,240.95
             771.33,237.72 767.70,233.85 764.76,229.00
             761.60,223.78 759.53,217.10 759.09,211.00
             759.00,207.10 760.53,203.99 759.09,201.21
             757.84,199.22 744.92,191.78 742.00,189.83
             742.00,189.83 715.00,172.47 715.00,172.47
             715.00,172.47 695.00,159.53 695.00,159.53
             693.28,158.60 692.05,157.80 690.00,157.98
             686.99,158.25 682.07,162.61 671.00,163.70
             656.33,165.15 643.73,155.44 636.00,144.00 Z
           M 496.00,376.00
           C 496.00,376.00 495.00,376.00 495.00,376.00
             495.00,376.00 496.00,377.00 496.00,377.00
             496.00,377.00 496.00,376.00 496.00,376.00 Z" />
</svg>
